<?xml version="1.0" encoding="UTF-8" standalone="no"?>
<!-- Created with Inkscape (http://www.inkscape.org/) -->

<svg
   xmlns:dc="http://purl.org/dc/elements/1.1/"
   xmlns:cc="http://creativecommons.org/ns#"
   xmlns:rdf="http://www.w3.org/1999/02/22-rdf-syntax-ns#"
   xmlns:svg="http://www.w3.org/2000/svg"
   xmlns="http://www.w3.org/2000/svg"
   xmlns:sodipodi="http://sodipodi.sourceforge.net/DTD/sodipodi-0.dtd"
   xmlns:inkscape="http://www.inkscape.org/namespaces/inkscape"
   width="210mm"
   height="297mm"
   viewBox="0 0 210 297"
   version="1.1"
   id="svg4699"
   inkscape:version="0.92.1 r15371"
   sodipodi:docname="iconCoupon.svg">
  <defs
     id="defs4693" />
  <sodipodi:namedview
     id="base"
     pagecolor="#ffffff"
     bordercolor="#666666"
     borderopacity="1.0"
     inkscape:pageopacity="0.0"
     inkscape:pageshadow="2"
     inkscape:zoom="1.979899"
     inkscape:cx="313.99759"
     inkscape:cy="666.83036"
     inkscape:document-units="mm"
     inkscape:current-layer="layer1"
     showgrid="false"
     inkscape:window-width="1366"
     inkscape:window-height="739"
     inkscape:window-x="0"
     inkscape:window-y="0"
     inkscape:window-maximized="1"
     inkscape:snap-global="false" />
  <metadata
     id="metadata4696">
    <rdf:RDF>
      <cc:Work
         rdf:about="">
        <dc:format>image/svg+xml</dc:format>
        <dc:type
           rdf:resource="http://purl.org/dc/dcmitype/StillImage" />
        <dc:title></dc:title>
      </cc:Work>
    </rdf:RDF>
  </metadata>
  <g
     inkscape:label="Layer 1"
     inkscape:groupmode="layer"
     id="layer1">
    <path
       style="fill:#86b58c;fill-opacity:1;stroke:#314a8c;stroke-width:0;stroke-linecap:butt;stroke-linejoin:round;stroke-miterlimit:4;stroke-dasharray:none;stroke-dashoffset:0;stroke-opacity:1;paint-order:stroke fill markers"
       d="M 288.57227 418.68359 L 288.57227 475.37695 L 368.24805 475.37695 A 2.8346443 2.8346441 0 0 1 371.04883 472.95703 A 2.8346443 2.8346441 0 0 1 373.84961 475.37695 L 401.95703 475.37695 L 401.95703 418.68359 L 373.88281 418.68359 A 2.8346443 2.8346441 0 0 1 373.88281 418.7168 A 2.8346443 2.8346441 0 0 1 371.04883 421.55273 A 2.8346443 2.8346441 0 0 1 368.21484 418.7168 A 2.8346443 2.8346441 0 0 1 368.2168 418.68359 L 288.57227 418.68359 z M 371.04883 423.96484 A 2.8346443 2.8346441 0 0 1 373.88281 426.79883 A 2.8346443 2.8346441 0 0 1 371.04883 429.63281 A 2.8346443 2.8346441 0 0 1 368.21484 426.79883 A 2.8346443 2.8346441 0 0 1 371.04883 423.96484 z M 371.04883 432.80273 A 2.8346443 2.8346441 0 0 1 373.88281 435.63672 A 2.8346443 2.8346441 0 0 1 371.04883 438.47266 A 2.8346443 2.8346441 0 0 1 368.21484 435.63672 A 2.8346443 2.8346441 0 0 1 371.04883 432.80273 z M 371.04883 440.50586 A 2.8346443 2.8346441 0 0 1 373.88281 443.33984 A 2.8346443 2.8346441 0 0 1 371.04883 446.17383 A 2.8346443 2.8346441 0 0 1 368.21484 443.33984 A 2.8346443 2.8346441 0 0 1 371.04883 440.50586 z M 371.04883 448.71289 A 2.8346443 2.8346441 0 0 1 373.88281 451.54688 A 2.8346443 2.8346441 0 0 1 371.04883 454.38281 A 2.8346443 2.8346441 0 0 1 368.21484 451.54688 A 2.8346443 2.8346441 0 0 1 371.04883 448.71289 z M 371.04883 456.28906 A 2.8346443 2.8346441 0 0 1 373.88281 459.12305 A 2.8346443 2.8346441 0 0 1 371.04883 461.95898 A 2.8346443 2.8346441 0 0 1 368.21484 459.12305 A 2.8346443 2.8346441 0 0 1 371.04883 456.28906 z M 371.04883 464.875 A 2.8346443 2.8346441 0 0 1 373.88281 467.71094 A 2.8346443 2.8346441 0 0 1 371.04883 470.54492 A 2.8346443 2.8346441 0 0 1 368.21484 467.71094 A 2.8346443 2.8346441 0 0 1 371.04883 464.875 z "
       transform="scale(0.26458333)"
       id="rect5244"
       inkscape:export-xdpi="169.33492"
       inkscape:export-ydpi="169.33492" />
    <text
       xml:space="preserve"
       style="font-style:normal;font-variant:normal;font-weight:bold;font-stretch:normal;font-size:10.58333302px;line-height:1.25;font-family:sans-serif;-inkscape-font-specification:'sans-serif, Bold';font-variant-ligatures:normal;font-variant-caps:normal;font-variant-numeric:normal;font-feature-settings:normal;text-align:start;letter-spacing:0px;word-spacing:0px;writing-mode:lr-tb;text-anchor:start;fill:#1a1a1a;fill-opacity:1;stroke:none;stroke-width:0.26458332"
       x="81.170387"
       y="122.12923"
       id="text5327"
       inkscape:export-xdpi="169.33492"
       inkscape:export-ydpi="169.33492"><tspan
         sodipodi:role="line"
         id="tspan5325"
         x="81.170387"
         y="122.12923"
         style="font-style:normal;font-variant:normal;font-weight:bold;font-stretch:normal;font-size:10.58333302px;font-family:sans-serif;-inkscape-font-specification:'sans-serif, Bold';font-variant-ligatures:normal;font-variant-caps:normal;font-variant-numeric:normal;font-feature-settings:normal;text-align:start;writing-mode:lr-tb;text-anchor:start;fill:#1a1a1a;stroke-width:0.26458332">%</tspan></text>
  </g>
</svg>
