<?xml version="1.0" encoding="UTF-8" standalone="no"?>
<!-- Created with Inkscape (http://www.inkscape.org/) -->

<svg
   xmlns:dc="http://purl.org/dc/elements/1.1/"
   xmlns:cc="http://creativecommons.org/ns#"
   xmlns:rdf="http://www.w3.org/1999/02/22-rdf-syntax-ns#"
   xmlns:svg="http://www.w3.org/2000/svg"
   xmlns="http://www.w3.org/2000/svg"
   xmlns:sodipodi="http://sodipodi.sourceforge.net/DTD/sodipodi-0.dtd"
   xmlns:inkscape="http://www.inkscape.org/namespaces/inkscape"
   width="210mm"
   height="297mm"
   viewBox="0 0 210 297"
   version="1.1"
   id="svg4874"
   inkscape:version="0.92.1 r15371"
   sodipodi:docname="iconGears.svg">
  <defs
     id="defs4868">
    <marker
       inkscape:stockid="Arrow1Lstart"
       orient="auto"
       refY="0.0"
       refX="0.0"
       id="Arrow1Lstart"
       style="overflow:visible"
       inkscape:isstock="true">
      <path
         id="path4535"
         d="M 0.0,0.0 L 5.0,-5.0 L -12.5,0.0 L 5.0,5.0 L 0.0,0.0 z "
         style="fill-rule:evenodd;stroke:#000000;stroke-width:1pt;stroke-opacity:1;fill:#000000;fill-opacity:1"
         transform="scale(0.8) translate(12.5,0)" />
    </marker>
    <inkscape:perspective
       sodipodi:type="inkscape:persp3d"
       inkscape:vp_x="0 : 148.5 : 1"
       inkscape:vp_y="0 : 1000 : 0"
       inkscape:vp_z="210 : 148.5 : 1"
       inkscape:persp3d-origin="105 : 99 : 1"
       id="perspective5467" />
  </defs>
  <sodipodi:namedview
     id="base"
     pagecolor="#ffffff"
     bordercolor="#666666"
     borderopacity="1.0"
     inkscape:pageopacity="0.0"
     inkscape:pageshadow="2"
     inkscape:zoom="1.979899"
     inkscape:cx="358.43178"
     inkscape:cy="871.36089"
     inkscape:document-units="mm"
     inkscape:current-layer="layer1"
     showgrid="false"
     inkscape:window-width="1366"
     inkscape:window-height="739"
     inkscape:window-x="0"
     inkscape:window-y="0"
     inkscape:window-maximized="1" />
  <metadata
     id="metadata4871">
    <rdf:RDF>
      <cc:Work
         rdf:about="">
        <dc:format>image/svg+xml</dc:format>
        <dc:type
           rdf:resource="http://purl.org/dc/dcmitype/StillImage" />
        <dc:title></dc:title>
      </cc:Work>
    </rdf:RDF>
  </metadata>
  <g
     inkscape:label="Layer 1"
     inkscape:groupmode="layer"
     id="layer1">
    <path
       style="color:#000000;font-style:normal;font-variant:normal;font-weight:normal;font-stretch:normal;font-size:medium;line-height:normal;font-family:sans-serif;font-variant-ligatures:normal;font-variant-position:normal;font-variant-caps:normal;font-variant-numeric:normal;font-variant-alternates:normal;font-feature-settings:normal;text-indent:0;text-align:start;text-decoration:none;text-decoration-line:none;text-decoration-style:solid;text-decoration-color:#000000;letter-spacing:normal;word-spacing:normal;text-transform:none;writing-mode:lr-tb;direction:ltr;text-orientation:mixed;dominant-baseline:auto;baseline-shift:baseline;text-anchor:start;white-space:normal;shape-padding:0;clip-rule:nonzero;display:inline;overflow:visible;visibility:visible;opacity:1;isolation:auto;mix-blend-mode:normal;color-interpolation:sRGB;color-interpolation-filters:linearRGB;solid-color:#000000;solid-opacity:1;vector-effect:none;fill:#000000;fill-opacity:1;fill-rule:nonzero;stroke:none;stroke-width:2;stroke-linecap:butt;stroke-linejoin:round;stroke-miterlimit:4;stroke-dasharray:none;stroke-dashoffset:0;stroke-opacity:1;paint-order:stroke fill markers;color-rendering:auto;image-rendering:auto;shape-rendering:auto;text-rendering:auto;enable-background:accumulate"
       d="m 98.109772,39.510766 a 1.0001,1.0001 0 0 0 -1.020609,0.991153 c -0.0116,1.31038 -0.53671,2.56273 -1.462958,3.489711 -1.960719,1.960639 -5.109345,1.961166 -7.070371,10e-4 l -5.16e-4,-5.16e-4 c -1.77e-4,-1.75e-4 -3.41e-4,-3.41e-4 -5.18e-4,-5.16e-4 -0.921893,-0.925166 -1.444758,-2.17333 -1.457791,-3.479374 A 1.0001,1.0001 0 0 0 85.874343,39.54694 c -3.196029,0.730064 -6.241955,2.006552 -9.004101,3.772378 a 1.0001,1.0001 0 0 0 -0.181383,1.536859 c 0.899073,0.931863 1.401569,2.175195 1.40198,3.470071 -2.12e-4,2.772598 -2.226202,4.998919 -4.99866,4.999697 -1.299014,-0.002 -2.545193,-0.509088 -3.476791,-1.414386 a 1.0001,1.0001 0 0 0 -1.540473,0.179835 c -1.76258,2.766094 -3.034316,5.815665 -3.759462,9.014436 a 1.0001,1.0001 0 0 0 0.963766,1.221115 c 1.306158,0.01508 2.553547,0.539925 3.477307,1.463477 1.960989,1.960993 1.960989,5.110406 0,7.071402 -0.923461,0.920237 -2.169009,1.442963 -3.472656,1.457791 a 1.0001,1.0001 0 0 0 -0.964282,1.219565 c 0.719577,3.200188 1.986093,6.251874 3.743958,9.021154 a 1.0001,1.0001 0 0 0 1.541507,0.180869 c 0.933532,-0.907852 2.183395,-1.415339 3.485576,-1.415418 2.773368,-6.9e-5 5.000281,2.226845 5.00021,5.00021 -0.0021,1.305409 -0.514462,2.557499 -1.427819,3.490227 a 1.0001,1.0001 0 0 0 0.1788,1.544092 c 2.772264,1.758696 5.82799,3.025079 9.031491,3.743442 a 1.0001,1.0001 0 0 0 1.218531,-0.964285 c 0.01452,-1.306695 0.539665,-2.555118 1.463476,-3.479374 1.960891,-1.960814 5.109898,-1.961174 7.070887,-5.16e-4 0.920556,0.923515 1.443476,2.169279 1.458306,3.473172 a 1.0001,1.0001 0 0 0 1.219565,0.964285 c 3.200184,-0.719582 6.251874,-1.986095 9.021154,-3.74396 a 1.0001,1.0001 0 0 0 0.18087,-1.541508 c -0.90785,-0.933532 -1.41534,-2.183394 -1.41542,-3.485575 -7e-5,-2.772842 2.22603,-4.999435 4.99866,-5.00021 1.30603,0.0019 2.55875,0.51394 3.49178,1.427819 a 1.0001,1.0001 0 0 0 1.54409,-0.178284 c 1.75875,-2.772429 3.02514,-5.828319 3.74344,-9.032007 a 1.0001,1.0001 0 0 0 -0.96428,-1.218528 c -1.3067,-0.01452 -2.55512,-0.539668 -3.47938,-1.463477 -1.96042,-1.960745 -1.96059,-5.108898 -5.1e-4,-7.069854 0.92403,-0.921557 2.17029,-1.444953 3.47524,-1.459341 a 1.0001,1.0001 0 0 0 0.9648,-1.219047 c -0.71833,-3.201911 -1.98421,-6.255777 -3.74189,-9.02684 a 1.0001,1.0001 0 0 0 -1.54255,-0.18035 c -0.9338,0.910362 -2.18506,1.419844 -3.48919,1.420069 -2.77301,6.8e-5 -4.99972,-2.226302 -5.00021,-4.999181 v -5.16e-4 c 0,-1.74e-4 0,-3.41e-4 0,-5.16e-4 0.002,-1.30869 0.51625,-2.56346 1.4335,-3.496944 a 1.0001,1.0001 0 0 0 -0.17725,-1.545125 c -2.77435,-1.761424 -5.8326,-3.029468 -9.039237,-3.748608 a 1.0001,1.0001 0 0 0 -0.197921,-0.02429 z m 0.844909,2.26808 c 2.222919,0.59858 4.353899,1.483 6.347929,2.633429 -0.77793,1.148466 -1.21003,2.506541 -1.21181,3.912423 a 1.0001,1.0001 0 0 0 0,0.001 c -9e-5,3.854284 3.14581,7.000185 7.00009,7.00009 1.40026,-2.39e-4 2.75444,-0.426871 3.90105,-1.197862 1.14845,1.992001 2.03091,4.120452 2.62879,6.3407 -1.35676,0.263835 -2.61676,0.917702 -3.60857,1.90686 a 1.0001,1.0001 0 0 0 -10e-4,10e-4 c -2.72529,2.725293 -2.72529,7.173843 0,9.899136 a 1.0001,1.0001 0 0 0 0,5.16e-4 c 0.99253,0.992058 2.25504,1.647666 3.61425,1.912027 -0.59786,2.221408 -1.48084,4.350827 -2.62982,6.343801 -1.14653,-0.774277 -2.50101,-1.204142 -3.90312,-1.206129 a 1.0001,1.0001 0 0 0 -0.002,0 c -3.85428,-9.6e-5 -7.00018,3.145808 -7.00009,7.000089 9e-5,1.398317 0.42585,2.750118 1.19476,3.895886 -1.99093,1.148956 -4.11881,2.032042 -6.338112,2.630847 -0.264123,-1.355524 -0.917623,-2.614377 -1.905828,-3.605463 a 1.0001,1.0001 0 0 0 -0.001,-0.001 c -2.725359,-2.725682 -7.174296,-2.725682 -9.899656,0 a 1.0001,1.0001 0 0 0 -5.15e-4,0 c -0.992058,0.992537 -1.647667,2.255046 -1.912028,3.614251 -2.221206,-0.597869 -4.350483,-1.480926 -6.343282,-2.629813 0.774115,-1.146572 1.203748,-2.501075 1.205611,-3.903123 a 1.0001,1.0001 0 0 0 0,-0.0015 c 9.5e-5,-3.854281 -3.145806,-7.000185 -7.000089,-7.000089 -1.398318,8.7e-5 -2.750119,0.425844 -3.895886,1.19476 -1.148953,-1.990937 -2.032043,-4.118814 -2.630848,-6.338115 1.355524,-0.264123 2.614377,-0.917622 3.605464,-1.905825 a 1.0001,1.0001 0 0 0 0.001,-0.001 c 2.725285,-2.725293 2.725285,-7.173843 0,-9.899136 -0.991259,-0.991037 -2.251687,-1.646876 -3.609084,-1.91203 0.602861,-2.21836 1.489544,-4.344488 2.642217,-6.333464 1.142923,0.766995 2.490798,1.192641 3.885552,1.194761 a 1.0001,1.0001 0 0 0 0.0016,0 c 3.854283,9.5e-5 7.000184,-3.145806 7.000089,-7.00009 a 1.0001,1.0001 0 0 0 0,-5.18e-4 c -4.42e-4,-1.390933 -0.4221,-2.735786 -1.183907,-3.8778 1.986232,-1.155543 4.109868,-2.04598 6.326227,-2.652551 0.263565,1.356979 0.917662,2.617476 1.906863,3.6096 a 1.0001,1.0001 0 0 0 0.001,10e-4 c 2.72536,2.725682 7.174297,2.725682 9.899656,0 a 1.0001,1.0001 0 0 0 5.16e-4,0 c 0.994854,-0.99564 1.651,-2.263008 1.913577,-3.626651 z m -6.863662,12.00805 c -7.465761,-1.34e-4 -13.539361,6.073466 -13.539226,13.539227 1.75e-4,7.465544 6.073682,13.538843 13.539226,13.538708 7.465327,-1.75e-4 13.538531,-6.073381 13.538711,-13.538708 1.3e-4,-7.465544 -6.073167,-13.539052 -13.538711,-13.539227 z m 0,1.99988 c 6.384666,1.48e-4 11.538941,5.154679 11.538831,11.539347 -1.5e-4,6.38448 -5.154353,11.53868 -11.538831,11.538831 -6.384668,1.14e-4 -11.539198,-5.154163 -11.539346,-11.538831 -1.17e-4,-6.384856 5.15449,-11.539463 11.539346,-11.539347 z"
       id="circle5458"
       inkscape:connector-curvature="0"
       inkscape:export-xdpi="96"
       inkscape:export-ydpi="96" />
    <path
       id="path5529"
       d="m 173.99365,157.57476 a 5.9999996,5.9999996 0 0 1 -1.75545,4.18786 5.9999996,5.9999996 0 0 1 -8.48579,0 5.9999996,5.9999996 0 0 1 -1.75079,-4.17649 27.5,27.5 0 0 0 -8.68836,3.63957 5.9999996,5.9999996 0 0 1 1.68206,4.16409 5.9999996,5.9999996 0 0 1 -6.00015,6.00014 5.9999996,5.9999996 0 0 1 -4.17235,-1.69705 27.5,27.5 0 0 0 -3.62769,8.69818 5.9999996,5.9999996 0 0 1 4.17287,1.75648 5.9999996,5.9999996 0 0 1 0,8.48527 5.9999996,5.9999996 0 0 1 -4.16821,1.7508 27.5,27.5 0 0 0 3.61269,8.70489 5.9999996,5.9999996 0 0 1 4.18269,-1.6986 5.9999996,5.9999996 0 0 1 6.00015,6.00015 5.9999996,5.9999996 0 0 1 -1.71307,4.18992 27.5,27.5 0 0 0 8.7142,3.61219 5.9999996,5.9999996 0 0 1 1.75596,-4.17494 5.9999996,5.9999996 0 0 1 8.48579,0 5.9999996,5.9999996 0 0 1 1.7508,4.16822 27.5,27.5 0 0 0 8.70489,-3.6127 5.9999996,5.9999996 0 0 1 -1.6986,-4.18269 5.9999996,5.9999996 0 0 1 6.00015,-6.00015 5.9999996,5.9999996 0 0 1 4.18992,1.71359 27.5,27.5 0 0 0 3.61219,-8.71472 5.9999996,5.9999996 0 0 1 -4.17494,-1.75596 5.9999996,5.9999996 0 0 1 0,-8.48527 5.9999996,5.9999996 0 0 1 4.1708,-1.75131 27.5,27.5 0 0 0 -3.61063,-8.71007 5.9999996,5.9999996 0 0 1 -4.18734,1.70377 5.9999996,5.9999996 0 0 1 -6.00015,-6.00014 5.9999996,5.9999996 0 0 1 1.72031,-4.19768 27.5,27.5 0 0 0 -8.72195,-3.61735 z"
       style="fill:#000000;fill-opacity:1;stroke:#000000;stroke-width:0;stroke-linecap:round;stroke-linejoin:round;stroke-miterlimit:4;stroke-dasharray:none;stroke-opacity:1;paint-order:stroke fill markers"
       inkscape:connector-curvature="0" />
    <circle
       r="10"
       cy="184.38994"
       cx="167.99532"
       id="circle5531"
       style="fill:#f70000;fill-opacity:1;stroke:#000000;stroke-width:0;stroke-linecap:round;stroke-linejoin:round;stroke-miterlimit:4;stroke-dasharray:none;stroke-opacity:1;paint-order:stroke fill markers" />
  </g>
</svg>
