<?xml version="1.0" encoding="UTF-8" standalone="no"?>
<!-- Created with Inkscape (http://www.inkscape.org/) -->

<svg
   xmlns:dc="http://purl.org/dc/elements/1.1/"
   xmlns:cc="http://creativecommons.org/ns#"
   xmlns:rdf="http://www.w3.org/1999/02/22-rdf-syntax-ns#"
   xmlns:svg="http://www.w3.org/2000/svg"
   xmlns="http://www.w3.org/2000/svg"
   xmlns:sodipodi="http://sodipodi.sourceforge.net/DTD/sodipodi-0.dtd"
   xmlns:inkscape="http://www.inkscape.org/namespaces/inkscape"
   width="210mm"
   height="297mm"
   viewBox="0 0 210 297"
   version="1.1"
   id="svg8"
   inkscape:version="0.92.1 r15371"
   sodipodi:docname="iconPrize.svg">
  <defs
     id="defs2">
    <inkscape:perspective
       sodipodi:type="inkscape:persp3d"
       inkscape:vp_x="0 : 148.5 : 1"
       inkscape:vp_y="0 : 1000 : 0"
       inkscape:vp_z="210 : 148.5 : 1"
       inkscape:persp3d-origin="105 : 99 : 1"
       id="perspective4533" />
  </defs>
  <sodipodi:namedview
     id="base"
     pagecolor="#ffffff"
     bordercolor="#666666"
     borderopacity="1.0"
     inkscape:pageopacity="0.0"
     inkscape:pageshadow="2"
     inkscape:zoom="1.979899"
     inkscape:cx="342.74291"
     inkscape:cy="211.07445"
     inkscape:document-units="mm"
     inkscape:current-layer="layer1"
     showgrid="false"
     inkscape:window-width="1366"
     inkscape:window-height="739"
     inkscape:window-x="0"
     inkscape:window-y="0"
     inkscape:window-maximized="1" />
  <metadata
     id="metadata5">
    <rdf:RDF>
      <cc:Work
         rdf:about="">
        <dc:format>image/svg+xml</dc:format>
        <dc:type
           rdf:resource="http://purl.org/dc/dcmitype/StillImage" />
        <dc:title></dc:title>
      </cc:Work>
    </rdf:RDF>
  </metadata>
  <g
     inkscape:label="Layer 1"
     inkscape:groupmode="layer"
     id="layer1">
    <path
       style="color:#000000;font-style:normal;font-variant:normal;font-weight:normal;font-stretch:normal;font-size:medium;line-height:normal;font-family:sans-serif;font-variant-ligatures:normal;font-variant-position:normal;font-variant-caps:normal;font-variant-numeric:normal;font-variant-alternates:normal;font-feature-settings:normal;text-indent:0;text-align:start;text-decoration:none;text-decoration-line:none;text-decoration-style:solid;text-decoration-color:#000000;letter-spacing:normal;word-spacing:normal;text-transform:none;writing-mode:lr-tb;direction:ltr;text-orientation:mixed;dominant-baseline:auto;baseline-shift:baseline;text-anchor:start;white-space:normal;shape-padding:0;clip-rule:nonzero;display:inline;overflow:visible;visibility:visible;opacity:1;isolation:auto;mix-blend-mode:normal;color-interpolation:sRGB;color-interpolation-filters:linearRGB;solid-color:#000000;solid-opacity:1;vector-effect:none;fill:#314a8c;fill-opacity:1;fill-rule:nonzero;stroke:none;stroke-width:13.89444065;stroke-linecap:butt;stroke-linejoin:round;stroke-miterlimit:4;stroke-dasharray:none;stroke-dashoffset:0;stroke-opacity:1;paint-order:stroke fill markers;color-rendering:auto;image-rendering:auto;shape-rendering:auto;text-rendering:auto;enable-background:accumulate"
       d="M 283.82617 895.74805 A 6.9479149 6.9479149 0 0 0 276.88086 902.69531 L 276.88086 945.39062 L 290.77344 945.39062 L 290.77344 909.64062 L 324.12305 909.64062 L 324.12305 895.74805 L 283.82617 895.74805 z M 343.02148 895.74805 L 343.02148 909.64062 L 376.37305 909.64062 L 376.37305 945.39062 L 390.26562 945.39062 L 390.26562 902.69531 A 6.9479149 6.9479149 0 0 0 383.32031 895.74805 L 343.02148 895.74805 z M 276.88086 964.28906 L 276.88086 1002.1875 A 6.9479149 6.9479149 0 0 0 283.82617 1009.1348 L 324.12305 1009.1348 L 324.12305 995.24023 L 290.77344 995.24023 L 290.77344 964.28906 L 276.88086 964.28906 z M 376.37305 964.28906 L 376.37305 995.24023 L 343.02148 995.24023 L 343.02148 1009.1348 L 383.32031 1009.1348 A 6.9479149 6.9479149 0 0 0 390.26562 1002.1875 L 390.26562 964.28906 L 376.37305 964.28906 z "
       transform="scale(0.26458333)"
       id="rect4619"
       inkscape:export-xdpi="96"
       inkscape:export-ydpi="96" />
    <path
       inkscape:connector-curvature="0"
       id="path4644"
       d="M 103.23924,250.81227 H 73.276388 v 3.645 h 29.962852 z"
       style="color:#000000;font-style:normal;font-variant:normal;font-weight:normal;font-stretch:normal;font-size:medium;line-height:normal;font-family:sans-serif;font-variant-ligatures:normal;font-variant-position:normal;font-variant-caps:normal;font-variant-numeric:normal;font-variant-alternates:normal;font-feature-settings:normal;text-indent:0;text-align:start;text-decoration:none;text-decoration-line:none;text-decoration-style:solid;text-decoration-color:#000000;letter-spacing:normal;word-spacing:normal;text-transform:none;writing-mode:lr-tb;direction:ltr;text-orientation:mixed;dominant-baseline:auto;baseline-shift:baseline;text-anchor:start;white-space:normal;shape-padding:0;clip-rule:nonzero;display:inline;overflow:visible;visibility:visible;opacity:1;isolation:auto;mix-blend-mode:normal;color-interpolation:sRGB;color-interpolation-filters:linearRGB;solid-color:#000000;solid-opacity:1;vector-effect:none;fill:#314a8c;fill-opacity:1;fill-rule:nonzero;stroke:none;stroke-width:3.9900043;stroke-linecap:butt;stroke-linejoin:miter;stroke-miterlimit:4;stroke-dasharray:none;stroke-dashoffset:0;stroke-opacity:1;color-rendering:auto;image-rendering:auto;shape-rendering:auto;text-rendering:auto;enable-background:accumulate"
       inkscape:export-xdpi="96"
       inkscape:export-ydpi="96" />
    <path
       style="color:#000000;font-style:normal;font-variant:normal;font-weight:normal;font-stretch:normal;font-size:medium;line-height:normal;font-family:sans-serif;font-variant-ligatures:normal;font-variant-position:normal;font-variant-caps:normal;font-variant-numeric:normal;font-variant-alternates:normal;font-feature-settings:normal;text-indent:0;text-align:start;text-decoration:none;text-decoration-line:none;text-decoration-style:solid;text-decoration-color:#000000;letter-spacing:normal;word-spacing:normal;text-transform:none;writing-mode:lr-tb;direction:ltr;text-orientation:mixed;dominant-baseline:auto;baseline-shift:baseline;text-anchor:start;white-space:normal;shape-padding:0;clip-rule:nonzero;display:inline;overflow:visible;visibility:visible;opacity:1;isolation:auto;mix-blend-mode:normal;color-interpolation:sRGB;color-interpolation-filters:linearRGB;solid-color:#000000;solid-opacity:1;vector-effect:none;fill:#314a8c;fill-opacity:1;fill-rule:nonzero;stroke:none;stroke-width:3.9900043;stroke-linecap:butt;stroke-linejoin:miter;stroke-miterlimit:4;stroke-dasharray:none;stroke-dashoffset:0;stroke-opacity:1;color-rendering:auto;image-rendering:auto;shape-rendering:auto;text-rendering:auto;enable-background:accumulate"
       d="m 86.435314,237.01869 v 29.96286 h 3.645 v -29.96286 z"
       id="path4652"
       inkscape:connector-curvature="0"
       inkscape:export-xdpi="96"
       inkscape:export-ydpi="96" />
    <g
       id="g4672"
       transform="translate(1.8207749,1.403165)"
       inkscape:export-xdpi="96"
       inkscape:export-ydpi="96">
      <path
         id="path4654"
         d="m 77.846273,227.20422 a 6.8171697,3.035986 31.327033 0 0 -1.90841,0.84542 6.8171697,3.035986 31.327033 0 0 4.245218,6.13761 6.8171697,3.035986 31.327033 0 0 7.401615,0.95085 6.8171697,3.035986 31.327033 0 0 -4.244702,-6.13761 6.8171697,3.035986 31.327033 0 0 -5.493721,-1.79627 z m 1.723409,1.93218 a 3.8161976,1.699521 31.327033 0 1 3.075265,1.00562 3.8161976,1.699521 31.327033 0 1 2.376083,3.43597 3.8161976,1.699521 31.327033 0 1 -4.143418,-0.53227 3.8161976,1.699521 31.327033 0 1 -2.376082,-3.43596 3.8161976,1.699521 31.327033 0 1 1.068152,-0.47336 z"
         style="fill:#314a8c;fill-opacity:1;stroke:#314a8c;stroke-width:0;stroke-linecap:butt;stroke-linejoin:round;stroke-miterlimit:4;stroke-dasharray:none;stroke-dashoffset:0;stroke-opacity:1;paint-order:stroke fill markers"
         inkscape:connector-curvature="0" />
      <path
         inkscape:connector-curvature="0"
         style="fill:#314a8c;fill-opacity:1;stroke:#314a8c;stroke-width:0;stroke-linecap:butt;stroke-linejoin:round;stroke-miterlimit:4;stroke-dasharray:none;stroke-dashoffset:0;stroke-opacity:1;paint-order:stroke fill markers"
         d="m 95.027811,227.20422 a 3.035986,6.8171697 58.672967 0 1 1.908402,0.84542 3.035986,6.8171697 58.672967 0 1 -4.24521,6.13761 3.035986,6.8171697 58.672967 0 1 -7.401616,0.95085 3.035986,6.8171697 58.672967 0 1 4.244703,-6.13761 3.035986,6.8171697 58.672967 0 1 5.493721,-1.79627 z m -1.723409,1.93218 a 1.699521,3.8161976 58.672967 0 0 -3.075265,1.00562 1.699521,3.8161976 58.672967 0 0 -2.376083,3.43597 1.699521,3.8161976 58.672967 0 0 4.143417,-0.53227 1.699521,3.8161976 58.672967 0 0 2.376083,-3.43596 1.699521,3.8161976 58.672967 0 0 -1.068152,-0.47336 z"
         id="path4662" />
    </g>
  </g>
</svg>
